<svg xmlns="http://www.w3.org/2000/svg" viewBox="35.99 39.75 24 24">
  <g transform="matrix(1, 0, 0, -1, 35.993488, 63.75499)">
    <g transform="">
      <path d="M 13 18 L 11 18 L 11 13 L 6 13 L 6 11 L 11 11 L 11 6 L 13 6 L 13 11 L 18 11 L 18 13 L 13 13 Z" style="fill: rgb(108, 119, 119); fill-opacity: 1;"/>
      <path d="M 12 2 C 6.486 2 2 6.486 2 12 C 2 17.514 6.486 22 12 22 C 17.514 22 22 17.514 22 12 C 22 6.486 17.514 2 12 2 Z M 12 24 C 5.384 24 0 18.617 0 12 C 0 5.383 5.384 0 12 0 C 18.617 0 24 5.383 24 12 C 24 18.617 18.617 24 12 24 Z" style="fill: rgb(108, 119, 119); fill-opacity: 1;"/>
    </g>
  </g>
</svg>