<svg xmlns="http://www.w3.org/2000/svg" viewBox="36.62 42.36 24 24">
  <g transform="matrix(1, 0, 0, -1, 36.620388, 66.363869)">
    <g transform="">
      <path d="M 6.001 11 L 18.001 11 L 18.001 13 L 6.001 13 Z" style="fill: rgb(108, 119, 119); fill-opacity: 1;"/>
      <path d="M 12.001 2 C 6.487 2 2 6.486 2 12 C 2 17.514 6.487 22 12.001 22 C 17.515 22 22.001 17.514 22.001 12 C 22.001 6.486 17.515 2 12.001 2 Z M 12.001 24 C 5.384 24 0 18.617 0 12 C 0 5.383 5.384 0 12.001 0 C 18.617 0 24.001 5.383 24.001 12 C 24.001 18.617 18.617 24 12.001 24 Z" style="fill: rgb(108, 119, 119); fill-opacity: 1;"/>
    </g>
  </g>
</svg>