<svg viewBox="0 0 444 131" xmlns="http://www.w3.org/2000/svg" xmlns:xlink="http://www.w3.org/1999/xlink"><linearGradient id="a" x1="0%" x2="100%" y1="50%" y2="50%"><stop offset="0" stop-color="#ff8500"/><stop offset="1" stop-color="#ffa405"/></linearGradient><linearGradient id="b" x1="0%" x2="100%" y1="50%" y2="50%"><stop offset="0" stop-color="#ffa800"/><stop offset="1" stop-color="#ff9909"/></linearGradient><linearGradient id="c" x1="0%" x2="100%" y1="50%" y2="50%"><stop offset="0" stop-color="#ff8e16"/><stop offset="1" stop-color="#fd3842"/></linearGradient><linearGradient id="d" x1="0%" x2="100%" y1="50%" y2="50%"><stop offset="0" stop-color="#f40076"/><stop offset="1" stop-color="#e20471"/></linearGradient><linearGradient id="e" x1="0%" x2="100%" y1="50%" y2="50%"><stop offset="0" stop-color="#ff3c4a"/><stop offset="1" stop-color="#fc006f"/></linearGradient><g fill="none" fill-rule="evenodd"><path d="m4.91051413 105.11748c1.93066091 0 16.15175997 6.627406 23.32987137 6.627406s11.9976716-.964093 12.9047785-3.630414c.907107-2.666321-.1214806-4.881272-5.0691109-6.256346s-26.08101819-7.3924566-31.16553897-13.6041778c-2.38575122-2.9146545-4.33189738-5.0328053-4.73587917-11.9134514-.4039818-6.8806461 1.68360574-11.8033586 5.91473661-15.595131 8.43383413-7.5580691 15.95703173-8.9037079 24.70402753-9.5905048 5.9759935-.4692233 11.8786607.2020423 17.4796049 1.0204722 5.6009443.8184299 13.7131646 2.3940158 14.4872892 3.9321511.7741245 1.5381354 1.0551569 14.6833861-.5967302 16.5272286s-11.6356105-2.6899358-25.1189098-2.7986209c-4.8383835-.0390008-9.3895344.2034466-10.3584571 3.222601-.9689226 3.0191543.423502 4.6205246 2.5718535 5.800817 3.8058762 2.0909273 14.4484772 3.0221115 20.8361122 5.328737 4.2584234 1.5377503 8.3356418 3.8643441 12.2316553 6.9797815 4.6408482 4.9410279 6.4349246 10.7564205 5.3822291 17.4461785-1.5790432 10.034637-4.6130082 12.782402-8.9058971 16.051084s-13.0354554 5.501003-20.821941 6.195946-18.7501578-1.405902-22.6762896-2.198929-7.41865606-2.597159-9.62080794-4.316808c-2.20215188-1.71965-3.37576609-2.253837-4.70514634-5.644771s-1.14003942-6.129487-.39934747-8.41186c.74069196-2.282374 2.40123647-5.171389 4.33189738-5.171389z" fill="url(#a)"/><path d="m80.268588 64.3751824c9.5353209-11.5976826 23.896665-15.3974029 41.283762-12.3881325 17.387097 3.0092703 25.840176 16.3440199 27.286371 22.5525076 1.446195 6.2084876 2.905718 14.1239793-4.69266 18.4264214-3.115335 1.7640013-11.211576 3.0299022-19.748795 4.091337l-1.25197.1539065c-11.91361 1.4488923-24.2515011 2.5302816-24.8147373 4.0331736-.9881336 2.636652 6.9294143 10.238171 21.2385043 10.60897 14.309091.3708 27.350324-9.505147 29.269658-9.020275 1.919335.484871.513299 9.878985-1.156332 13.933433-1.669632 4.054449-4.116621 6.976256-9.650486 9.931034-5.533865 2.954779-10.043631 3.892852-16.872883 4.230982-6.829252.338129-15.634921-.513633-23.2150318-2.769871-7.5801109-2.256238-19.0701219-8.724831-24.2247428-23.693229-5.154621-14.9683981-2.9859783-28.492575 6.5493426-40.0902576zm28.507695 5.4097227c-9.3510042 1.2002262-14.7463544 12.5843159-12.0486793 13.3285133s25.0925123-2.587168 27.7974663-4.4695793-6.397782-10.0591602-15.748787-8.858934z" fill="url(#b)"/><path d="m157.592311 52.2080239c13.014228-4.9680538 18.713809 0 22.109883 0 3.396073 0 10.944969-2.1441676 24.826098-.647215 13.881128 1.4969526 26.877117 7.1375815 28.387397 19.4096639s1.379744 55.6765642 0 57.1110102c-1.379744 1.434445-12.176297 2.602075-17.131288 1.434445s-7.221018-4.769885-8.021131-7.147408c-.800112-2.377523.178155-40.0555305-1.160355-45.8313496-1.338511-5.7758191-6.39019-4.9822466-11.734085-5.5666976-5.343894-.5844511-9.564331.5868455-11.03241 3.0767716-1.46808 2.489926.451725 46.0135236 0 49.9280656-.451725 3.914543-.54682 4.895189-5.893418 5.540618s-7.908674.645429-12.731699 0-6.77963-2.277397-8.389331-6.316061c-1.111842-2.789557-.773558-31.1156118-.773558-52.2293942 0-9.0561222-.414803-17.0544405 1.543897-18.7624489z" fill="url(#c)"/><path d="m356.590199 51.9280703c12.996967-4.9859326 26.209301.5000555 26.209301 7.3296384 0 6.829583.451125 60.7672903 0 64.6959203-.451126 3.92863-.546094 4.912805-5.885601 5.560557s-7.898185.647752-12.714813 0-6.770638-2.285592-8.378204-6.338791c-1.110367-2.799596-.772532-31.227589-.772532-52.4173545 0-9.0887129-.414253-17.1158151 1.541849-18.8299702z" fill="url(#d)"/><path d="m294.365897 25.0406091c1.19471-1.3743173 25.866188-3.7092811 25.866188 10.661989 0 9.4850383.752633 45.709124.767686 69.8855549l-.000705 2.163589c-.015039 11.35062-.214082 19.5928-.766981 20.30574-1.088519 1.403601-12.457874 1.922933-23.898278 1.941972l-1.08945.000313-1.08792-.002639c-5.975759-.022494-11.79315-.175567-15.984812-.404035-12.702006-.692326-20.401937-5.820805-26.904301-11.412004-6.502365-5.5912-12.677321-17.488814-10.983718-31.881601 1.693603-14.3927873 5.493257-23.514563 18.423763-32.0300856s31.511789-4.8411834 35.011195-2.882888c0-2.4430704-.102976-7.4646557-.122115-12.4805068l-.002381-.835479c-.000257-.1390899-.000441-.2780646-.000549-.4168688l.000308-.8303346c.009045-5.7918091.167518-11.0872784.77207-11.7827161zm-27.752974 64.6281923c0 24.5180676 26.910965 20.3214126 26.910965 16.5670646v-34.5979767c0-3.8607636-26.910965-6.4871559-26.910965 18.0309121z" fill="url(#e)"/><path d="m432.121425 108.703622c1.931623 2.35102 12.364603.499316 11.80591 9.327339-.558692 8.828024-7.286945 13.269873-17.879229 12.953222-10.592283-.316652-15.421389-5.389962-19.35631-10.75466-3.93492-5.364698-2.804298-11.454302-3.374758-21.3531442-.57046-9.8988424.619235-18.4717701 0-19.9957874s-12.214226.218015-13.500471-1.3060022c-1.286244-1.5240173-1.060549-11.8280505.731132-15.5187866s11.584724-1.5956664 12.769339-3.4929375-.691778-18.852012.958888-20.9318616c1.650666-2.0798495 15.903584-2.9760108 21.77218 2.3343331 5.868596 5.310344 1.578075 16.7002574 3.773105 18.5975285s12.256025-.7554648 13.5256 1.8972711c1.269575 2.6527358.644237 14.1554203-1.491755 16.2695378s-10.333125 0-12.033845 3.4204344c-1.70072 3.4204345-.950602 15.5811194 0 21.2078966.950602 5.626777.368592 4.994597 2.300214 7.345617z" fill="url(#d)"/><g fill="#bbbfc2" transform="translate(354)"><path d="m15 35.7795222c1.1105511 0 15-11.8937362 15-20.1604746 0-8.26673838-6.7157288-15.6190476-15-15.6190476-8.28427125 0-15 7.35230922-15 15.6190476 0 8.2667384 13.8894489 20.1604746 15 20.1604746z"/><ellipse cx="15" cy="39.047619" rx="15" ry="1.952381"/></g></g></svg>